# xmcd
#
# Track frame offsets: 
#        150
#        34190
#        55105
#        83820
#        115512
#        137755
#        160842
#        180490
#        198635
#        214047
#        242525
#
# Disc length: 3620 seconds
#
# Revision: 8
# Processed by: cddbd v1.5.2PL0 Copyright (c) Steve Scherf et al.
# Submitted via: ExactAudioCopy v0.95b4
#
DISCID=8c0e220b
DTITLE=Chucho Valdes - Solo Live in New York
DYEAR=2001
DGENRE=Jazz
TTITLE0=A mi madre
TTITLE1=Munequita linda
TTITLE2=Rumba guajira
TTITLE3=Besame mucho
TTITLE4=El manicero
TTITLE5=Somewhere Over the Rainbow
TTITLE6=Son
TTITLE7=Novia mia
TTITLE8=Delirio
TTITLE9=Tres lindas cubanas
TTITLE10=La negra Tomasa
EXTD=YEAR: 2001
EXTT0=
EXTT1=
EXTT2=
EXTT3=
EXTT4=
EXTT5=
EXTT6=
EXTT7=
EXTT8=
EXTT9=
EXTT10=
PLAYORDER=
